# xmcd
#
# Track frame offsets:
#	150
#	15253
#	36700
#	51937
#	70117
#	91494
#	106438
#	125746
#	138725
#	156532
#	171418
#
# Disc length: 2515 seconds
#
# Revision: 1
# Processed by: cddbd v1.5.2PL0 Copyright (c) Steve Scherf et al.
# Submitted via: audiograbber 1.83.01
#
DISCID=a509d10b
DTITLE=Mead, Chuck - Journeyman's Wager
DYEAR=2009
DGENRE=Americana
TTITLE0=Out on the Natchez Trail
TTITLE1=Gun Metal Grey
TTITLE2=She Got the Ring (I Got the Finger)
TTITLE3=Albuquerque
TTITLE4=Up on Edge Hill
TTITLE5=I Wish It Was Friday
TTITLE6=Long Time Ago, A
TTITLE7=After the Last Witness Is Gone
TTITLE8=In a Son
TTITLE9=Old Brown Shoe
TTITLE10=No Requests
EXTD=
EXTT0=
EXTT1=
EXTT2=
EXTT3=
EXTT4=
EXTT5=
EXTT6=
EXTT7=
EXTT8=
EXTT9=
EXTT10=
PLAYORDER=
